# xmcd
#
# Track frame offsets:
#	150
#	14291
#	30265
#	44751
#	62118
#	78017
#	90917
#	106780
#	125555
#	142316
#	157684
#	178336
#	195131
#	214023
#	232765
#	247959
#	264561
#	278982
#	298751
#	314517
#
# Disc length: 4396 seconds
# Revision: 0
# Processed by: cddbd v1.5.2PL0 Copyright (c) Steve Scherf et al.
# Submitted via: dBpowerAMP V12.0
#
DISCID=0d112a14
DTITLE=José Luis Perales - Vol.2 (1978/1982) [CD1)
DYEAR=2014
DGENRE=Balada
TTITLE0=Me duelen
TTITLE1=Me iré
TTITLE2=Compraré
TTITLE3=Dices que soy hombre triste
TTITLE4=Canción para un pequeño viajero
TTITLE5=Pequeño gorrión
TTITLE6=La casada
TTITLE7=Así te quiero yo
TTITLE8=Soledades
TTITLE9=Pequeño marinero
TTITLE10=Me llamas
TTITLE11=Adrián
TTITLE12=El amor
TTITLE13=El soñador
TTITLE14=Isabel
TTITLE15=Un velero llamado libertad
TTITLE16=Si a ti te hubieran dicho
TTITLE17=Tú como yo
TTITLE18=Un día más
TTITLE19=Tu país
EXTD=
EXTT0=
EXTT1=
EXTT2=
EXTT3=
EXTT4=
EXTT5=
EXTT6=
EXTT7=
EXTT8=
EXTT9=
EXTT10=
EXTT11=
EXTT12=
EXTT13=
EXTT14=
EXTT15=
EXTT16=
EXTT17=
EXTT18=
EXTT19=
PLAYORDER=
